0
SECTION
2
HEADER
9
$INSUNITS
70
4
9
$ACADVER
1
AC1014
9
$HANDSEED
5
FFFF
0
ENDSEC
0
SECTION
2
TABLES
0
TABLE
2
VPORT
5
8
100
AcDbSymbolTable
0
ENDTAB
0
TABLE
2
LTYPE
5
5
100
AcDbSymbolTable
0
LTYPE
5
14
100
AcDbSymbolTableRecord
100
AcDbLinetypeTableRecord
2
BYBLOCK
70
0
0
LTYPE
5
15
100
AcDbSymbolTableRecord
100
AcDbLinetypeTableRecord
2
BYLAYER
70
0
0
ENDTAB
0
TABLE
2
LAYER
5
2
100
AcDbSymbolTable
70
2
0
LAYER
5
50
100
AcDbSymbolTableRecord
100
AcDbLayerTableRecord
2
0
70
0
6
CONTINUOUS
0
ENDTAB
0
TABLE
2
STYLE
5
3
100
AcDbSymbolTable
70
1
0
STYLE
5
11
100
AcDbSymbolTableRecord
100
AcDbTextStyleTableRecord
2
STANDARD
70
0
0
ENDTAB
0
TABLE
2
VIEW
5
6
100
AcDbSymbolTable
70
0
0
ENDTAB
0
TABLE
2
UCS
5
7
100
AcDbSymbolTable
70
0
0
ENDTAB
0
TABLE
2
APPID
5
9
100
AcDbSymbolTable
70
2
0
APPID
5
12
100
AcDbSymbolTableRecord
100
AcDbRegAppTableRecord
2
ACAD
70
0
0
ENDTAB
0
TABLE
2
DIMSTYLE
5
A
100
AcDbSymbolTable
70
1
0
ENDTAB
0
TABLE
2
BLOCK_RECORD
5
1
100
AcDbSymbolTable
70
1
0
BLOCK_RECORD
5
1F
100
AcDbSymbolTableRecord
100
AcDbBlockTableRecord
2
*MODEL_SPACE
0
BLOCK_RECORD
5
1B
100
AcDbSymbolTableRecord
100
AcDbBlockTableRecord
2
*PAPER_SPACE
0
ENDTAB
0
ENDSEC
0
SECTION
2
BLOCKS
0
BLOCK
5
20
100
AcDbEntity
100
AcDbBlockBegin
2
*MODEL_SPACE
0
ENDBLK
5
21
100
AcDbEntity
100
AcDbBlockEnd
0
BLOCK
5
1C
100
AcDbEntity
100
AcDbBlockBegin
2
*PAPER_SPACE
0
ENDBLK
5
1D
100
AcDbEntity
100
AcDbBlockEnd
0
ENDSEC
0
SECTION
2
ENTITIES
0
LWPOLYLINE
5
100
100
AcDbEntity
8
0
100
AcDbPolyline
90
4
70
1
43
0.0
10
27.5
20
0
10
27.5
20
400
42
0.99999999999999989
10
-27.5
20
400
10
-27.5
20
3.3516680464828319e-15
42
0.99999999999999989
0
CIRCLE
5
101
100
AcDbEntity
8
0
100
AcDbCircle
10
23.5
20
370
30
0
40
1.4999999999999858
210
0
220
0
230
1
0
CIRCLE
5
102
100
AcDbEntity
8
0
100
AcDbCircle
10
-23.249999999999972
20
370
30
0
40
1.5000000000000036
210
0
220
0
230
1
0
CIRCLE
5
103
100
AcDbEntity
8
0
100
AcDbCircle
10
2.2204460492503131e-15
20
400
30
0
40
17.5
210
0
220
0
230
1
0
CIRCLE
5
104
100
AcDbEntity
8
0
100
AcDbCircle
10
0
20
422
30
0
40
1.5000000000000002
210
0
220
0
230
1
0
CIRCLE
5
105
100
AcDbEntity
8
0
100
AcDbCircle
10
19.05255888325761
20
389.00000000000006
30
0
40
1.4999999999999991
210
0
220
0
230
1
0
CIRCLE
5
106
100
AcDbEntity
8
0
100
AcDbCircle
10
-19.052558883257692
20
389.00000000000006
30
0
40
1.4999999999999991
210
0
220
0
230
1
0
CIRCLE
5
107
100
AcDbEntity
8
0
100
AcDbCircle
10
23.5
20
246.25
30
0
40
1.4999999999999858
210
0
220
0
230
1
0
LWPOLYLINE
5
108
100
AcDbEntity
8
0
100
AcDbPolyline
90
6
70
1
43
0.0
10
-2.5002557964495016
20
329.21378480011384
42
-0.24591602091087297
10
-2.500255796449502
20
328.28621519988616
10
-17.614052112602955
20
299.41498890364431
42
-0.7838774969074348
10
-19.499999999999993
20
299.87877370375821
10
-19.499999999999961
20
357.62122629624184
42
-0.78387749690749009
10
-17.614052112602945
20
358.08501109635574
0
CIRCLE
5
109
100
AcDbEntity
8
0
100
AcDbCircle
10
-23.249999999999972
20
328.75
30
0
40
1.5000000000000036
210
0
220
0
230
1
0
LWPOLYLINE
5
110
100
AcDbEntity
8
0
100
AcDbPolyline
90
6
70
1
43
0.0
10
-2.500255796449502
20
163.2862151998861
10
-17.614052112602955
20
134.41498890364429
42
-0.78387749690745923
10
-19.500000000000007
20
134.87877370375821
10
-19.499999999999989
20
192.62122629624179
42
-0.78387749690744735
10
-17.61405211260297
20
193.08501109635569
10
-2.500255796449506
20
164.2137848001139
42
-0.24591602091087661
0
CIRCLE
5
111
100
AcDbEntity
8
0
100
AcDbCircle
10
23.5
20
81.25
30
0
40
1.4999999999999858
210
0
220
0
230
1
0
CIRCLE
5
112
100
AcDbEntity
8
0
100
AcDbCircle
10
-23.249999999999972
20
122.5
30
0
40
1.5000000000000036
210
0
220
0
230
1
0
LWPOLYLINE
5
113
100
AcDbEntity
8
0
100
AcDbPolyline
90
6
70
1
43
0.0
10
16.476254270664594
20
45.46378480011392
42
-0.56365274100899321
10
15.590306383267531
20
44
10
-15.59030638326754
20
43.999999999999993
42
-0.56365274100898854
10
-16.476254270664597
20
45.463784800113906
10
-0.88594788739704955
20
75.245267506612151
42
-0.6052446283962627
10
0.88594788739705388
20
75.245267506612151
0
LWPOLYLINE
5
114
100
AcDbEntity
8
0
100
AcDbPolyline
90
6
70
1
43
0.0
10
19.499999999999943
20
299.87877370375821
42
-0.78387749690746167
10
17.614052112602923
20
299.41498890364431
10
2.5002557964494954
20
328.28621519988616
42
-0.2459160209108692
10
2.5002557964494954
20
329.21378480011384
10
17.61405211260297
20
358.0850110963558
42
-0.78387749690749009
10
19.499999999999989
20
357.62122629624196
0
LWPOLYLINE
5
115
100
AcDbEntity
8
0
100
AcDbPolyline
90
6
70
1
43
0.0
10
-17.614052112602955
20
275.58501109635569
10
-2.5002557964495082
20
246.7137848001139
42
-0.24591602091088591
10
-2.5002557964495264
20
245.78621519988613
10
-17.614052112602931
20
216.91498890364417
42
-0.78387749690746777
10
-19.500000000000011
20
217.37877370375824
10
-19.500000000000028
20
275.12122629624179
42
-0.78387749690742414
0
LWPOLYLINE
5
116
100
AcDbEntity
8
0
100
AcDbPolyline
90
6
70
1
43
0.0
10
15.590306383267521
20
283.5
42
-0.56365274100899698
10
16.476254270664601
20
282.0362151998861
10
0.88594788739707375
20
252.25473249338791
42
-0.60524462839629545
10
-0.88594788739706498
20
252.25473249338791
10
-16.47625427066458
20
282.0362151998861
42
-0.56365274100898999
10
-15.590306383267512
20
283.5
0
LWPOLYLINE
5
117
100
AcDbEntity
8
0
100
AcDbPolyline
90
6
70
1
43
0.0
10
0.88594788739708163
20
169.75473249338791
42
-0.60524462839627513
10
-0.88594788739706498
20
169.75473249338791
10
-16.476254270664594
20
199.53621519988613
42
-0.5636527410089931
10
-15.590306383267521
20
200.99999999999997
10
15.590306383267517
20
201
42
-0.56365274100900753
10
16.476254270664587
20
199.53621519988613
0
LWPOLYLINE
5
118
100
AcDbEntity
8
0
100
AcDbPolyline
90
6
70
1
43
0.0
10
-0.88594788739707386
20
87.254732493387891
10
-16.476254270664597
20
117.03621519988602
42
-0.56365274100898899
10
-15.590306383267531
20
118.50000000000001
10
15.590306383267514
20
118.50000000000001
42
-0.56365274100898688
10
16.47625427066458
20
117.03621519988602
10
0.88594788739707253
20
87.254732493387877
42
-0.60524462839628013
0
CIRCLE
5
119
100
AcDbEntity
8
0
100
AcDbCircle
10
-23.249999999999972
20
246.25
30
0
40
1.5000000000000036
210
0
220
0
230
1
0
LWPOLYLINE
5
120
100
AcDbEntity
8
0
100
AcDbPolyline
90
6
70
1
43
0.0
10
2.5002557964495153
20
164.2137848001139
10
17.614052112602963
20
193.08501109635571
42
-0.78387749690745467
10
19.500000000000025
20
192.6212262962417
10
19.500000000000011
20
134.8787737037581
42
-0.78387749690745923
10
17.614052112602948
20
134.4149889036442
10
2.5002557964495145
20
163.2862151998861
42
-0.24591602091083364
0
CIRCLE
5
121
100
AcDbEntity
8
0
100
AcDbCircle
10
23.5
20
287.5
30
0
40
1.4999999999999858
210
0
220
0
230
1
0
CIRCLE
5
122
100
AcDbEntity
8
0
100
AcDbCircle
10
-23.249999999999972
20
163.75
30
0
40
1.5000000000000036
210
0
220
0
230
1
0
CIRCLE
5
123
100
AcDbEntity
8
0
100
AcDbCircle
10
-23.249999999999972
20
81.25
30
0
40
1.5000000000000036
210
0
220
0
230
1
0
LWPOLYLINE
5
124
100
AcDbEntity
8
0
100
AcDbPolyline
90
6
70
1
43
0.0
10
-17.614052112602931
20
110.58501109635571
10
-2.5002557964494887
20
81.713784800113928
42
-0.24591602091086662
10
-2.5002557964495042
20
80.786215199886044
10
-17.614052112602938
20
51.914988903644286
42
-0.78387749690746888
10
-19.499999999999996
20
52.378773703758192
10
-19.500000000000007
20
110.1212262962418
42
-0.78387749690746766
0
LWPOLYLINE
5
125
100
AcDbEntity
8
0
100
AcDbPolyline
90
6
70
1
43
0.0
10
17.614052112602948
20
51.914988903644222
10
2.5002557964495065
20
80.786215199886044
42
-0.24591602091085213
10
2.5002557964494909
20
81.713784800113913
10
17.614052112602948
20
110.58501109635571
42
-0.78387749690747877
10
19.499999999999996
20
110.1212262962418
10
19.5
20
52.378773703758135
42
-0.78387749690746511
0
LWPOLYLINE
5
126
100
AcDbEntity
8
0
100
AcDbPolyline
90
6
70
1
43
0.0
10
16.476254270664569
20
364.53621519988616
10
0.88594788739706187
20
334.75473249338785
42
-0.60524462839627058
10
-0.8859478873970561
20
334.75473249338785
10
-16.47625427066459
20
364.5362151998861
42
-0.56365274100898177
10
-15.590306383267542
20
366
10
15.59030638326753
20
365.99999999999994
42
-0.56365274100898044
0
CIRCLE
5
127
100
AcDbEntity
8
0
100
AcDbCircle
10
23.5
20
205
30
0
40
1.4999999999999858
210
0
220
0
230
1
0
LWPOLYLINE
5
128
100
AcDbEntity
8
0
100
AcDbPolyline
90
6
70
1
43
0.0
10
-0.88594788739706853
20
157.74526750661209
42
-0.60524462839627302
10
0.88594788739706498
20
157.74526750661209
10
16.47625427066459
20
127.96378480011391
42
-0.56365274100899032
10
15.590306383267521
20
126.50000000000003
10
-15.590306383267521
20
126.5
42
-0.56365274100898244
10
-16.47625427066459
20
127.96378480011391
0
LWPOLYLINE
5
129
100
AcDbEntity
8
0
100
AcDbPolyline
90
6
70
1
43
0.0
10
15.590306383267512
20
291.5
10
-15.590306383267533
20
291.5
42
-0.56365274100900453
10
-16.476254270664576
20
292.96378480011384
10
-0.88594788739706654
20
322.74526750661215
42
-0.6052446283962708
10
0.8859478873970672
20
322.74526750661215
10
16.476254270664533
20
292.96378480011384
42
-0.56365274100897333
0
CIRCLE
5
130
100
AcDbEntity
8
0
100
AcDbCircle
10
23.5
20
122.5
30
0
40
1.4999999999999858
210
0
220
0
230
1
0
CIRCLE
5
131
100
AcDbEntity
8
0
100
AcDbCircle
10
-23.249999999999972
20
205
30
0
40
1.5000000000000036
210
0
220
0
230
1
0
LWPOLYLINE
5
132
100
AcDbEntity
8
0
100
AcDbPolyline
90
6
70
1
43
0.0
10
16.476254270664541
20
210.4637848001139
42
-0.56365274100899554
10
15.590306383267512
20
209.00000000000003
10
-15.590306383267521
20
209.00000000000003
42
-0.56365274100896323
10
-16.476254270664572
20
210.4637848001139
10
-0.88594788739707442
20
240.24526750661209
42
-0.60524462839629545
10
0.88594788739706498
20
240.24526750661209
0
CIRCLE
5
133
100
AcDbEntity
8
0
100
AcDbCircle
10
23.5
20
163.75
30
0
40
1.4999999999999858
210
0
220
0
230
1
0
LWPOLYLINE
5
134
100
AcDbEntity
8
0
100
AcDbPolyline
90
4
70
1
43
0.0
10
-15
20
203.5
42
-0.99999999999999989
10
-14.999999999999947
20
206.50000000000006
10
15
20
206.50000000000003
42
-0.99999999999999989
10
15.000000000000018
20
203.50000000000006
0
CIRCLE
5
135
100
AcDbEntity
8
0
100
AcDbCircle
10
23.5
20
328.75
30
0
40
1.4999999999999858
210
0
220
0
230
1
0
CIRCLE
5
136
100
AcDbEntity
8
0
100
AcDbCircle
10
-23.249999999999972
20
287.5
30
0
40
1.5000000000000036
210
0
220
0
230
1
0
LWPOLYLINE
5
137
100
AcDbEntity
8
0
100
AcDbPolyline
90
6
70
1
43
0.0
10
17.614052112602931
20
275.58501109635574
42
-0.78387749690746744
10
19.500000000000007
20
275.12122629624179
10
19.50000000000005
20
217.37877370375824
42
-0.78387749690743069
10
17.614052112602913
20
216.91498890364429
10
2.5002557964494745
20
245.78621519988602
42
-0.24591602091090217
10
2.5002557964495109
20
246.7137848001139
0
CIRCLE
5
138
100
AcDbEntity
8
0
100
AcDbCircle
10
23.5
20
40
30
0
40
1.4999999999999858
210
0
220
0
230
1
0
LWPOLYLINE
5
139
100
AcDbEntity
8
0
100
AcDbPolyline
90
4
70
1
43
0.0
10
14.999999999999964
20
38.500000000000014
10
-15.000000000000034
20
38.500000000000433
42
-0.99999999999999989
10
-14.999999999999982
20
41.499999999999993
10
15
20
41.499999999999559
42
-0.99999999999999989
0
CIRCLE
5
140
100
AcDbEntity
8
0
100
AcDbCircle
10
-23.249999999999972
20
40
30
0
40
1.5000000000000036
210
0
220
0
230
1
0
LWPOLYLINE
5
141
100
AcDbEntity
8
0
100
AcDbPolyline
90
4
70
1
43
0.0
10
-15.000000000000135
20
371.49999999999972
10
14.999999999999893
20
371.5
42
-0.99999999999999989
10
14.999999999999893
20
368.50000000000057
10
-14.999999999999989
20
368.5
42
-0.99999999999999989
0
CIRCLE
5
142
100
AcDbEntity
8
0
100
AcDbCircle
10
-4.9999999999999938
20
8.6602540378443891
30
0
40
1.5000000000000002
210
0
220
0
230
1
0
CIRCLE
5
143
100
AcDbEntity
8
0
100
AcDbCircle
10
-10
20
1.0999999999999999e-15
30
0
40
1.5000000000000002
210
0
220
0
230
1
0
CIRCLE
5
144
100
AcDbEntity
8
0
100
AcDbCircle
10
5.0000000000000036
20
8.6602540378443855
30
0
40
1.5000000000000002
210
0
220
0
230
1
0
CIRCLE
5
145
100
AcDbEntity
8
0
100
AcDbCircle
10
-5.0000000000000044
20
-8.6602540378443855
30
0
40
1.5000000000000002
210
0
220
0
230
1
0
CIRCLE
5
146
100
AcDbEntity
8
0
100
AcDbCircle
10
10
20
1.0000000000000001e-16
30
0
40
1.4999999999999991
210
0
220
0
230
1
0
CIRCLE
5
147
100
AcDbEntity
8
0
100
AcDbCircle
10
4.999999999999992
20
-8.6602540378443891
30
0
40
1.5000000000000002
210
0
220
0
230
1
0
CIRCLE
5
148
100
AcDbEntity
8
0
100
AcDbCircle
10
0
20
0
30
0
40
5
210
0
220
0
230
1
0
ENDSEC
0
SECTION
2
OBJECTS
0
DICTIONARY
5
C
100
AcDbDictionary
3
ACAD_GROUP
350
D
3
ACAD_MLINESTYLE
350
17
0
DICTIONARY
5
D
100
AcDbDictionary
0
DICTIONARY
5
1A
330
C
100
AcDbDictionary
0
DICTIONARY
5
17
100
AcDbDictionary
0
ENDSEC
0
EOF
