0
SECTION
2
HEADER
9
$INSUNITS
70
4
9
$ACADVER
1
AC1014
9
$HANDSEED
5
FFFF
0
ENDSEC
0
SECTION
2
TABLES
0
TABLE
2
VPORT
5
8
100
AcDbSymbolTable
0
ENDTAB
0
TABLE
2
LTYPE
5
5
100
AcDbSymbolTable
0
LTYPE
5
14
100
AcDbSymbolTableRecord
100
AcDbLinetypeTableRecord
2
BYBLOCK
70
0
0
LTYPE
5
15
100
AcDbSymbolTableRecord
100
AcDbLinetypeTableRecord
2
BYLAYER
70
0
0
ENDTAB
0
TABLE
2
LAYER
5
2
100
AcDbSymbolTable
70
2
0
LAYER
5
50
100
AcDbSymbolTableRecord
100
AcDbLayerTableRecord
2
0
70
0
6
CONTINUOUS
0
ENDTAB
0
TABLE
2
STYLE
5
3
100
AcDbSymbolTable
70
1
0
STYLE
5
11
100
AcDbSymbolTableRecord
100
AcDbTextStyleTableRecord
2
STANDARD
70
0
0
ENDTAB
0
TABLE
2
VIEW
5
6
100
AcDbSymbolTable
70
0
0
ENDTAB
0
TABLE
2
UCS
5
7
100
AcDbSymbolTable
70
0
0
ENDTAB
0
TABLE
2
APPID
5
9
100
AcDbSymbolTable
70
2
0
APPID
5
12
100
AcDbSymbolTableRecord
100
AcDbRegAppTableRecord
2
ACAD
70
0
0
ENDTAB
0
TABLE
2
DIMSTYLE
5
A
100
AcDbSymbolTable
70
1
0
ENDTAB
0
TABLE
2
BLOCK_RECORD
5
1
100
AcDbSymbolTable
70
1
0
BLOCK_RECORD
5
1F
100
AcDbSymbolTableRecord
100
AcDbBlockTableRecord
2
*MODEL_SPACE
0
BLOCK_RECORD
5
1B
100
AcDbSymbolTableRecord
100
AcDbBlockTableRecord
2
*PAPER_SPACE
0
ENDTAB
0
ENDSEC
0
SECTION
2
BLOCKS
0
BLOCK
5
20
100
AcDbEntity
100
AcDbBlockBegin
2
*MODEL_SPACE
0
ENDBLK
5
21
100
AcDbEntity
100
AcDbBlockEnd
0
BLOCK
5
1C
100
AcDbEntity
100
AcDbBlockBegin
2
*PAPER_SPACE
0
ENDBLK
5
1D
100
AcDbEntity
100
AcDbBlockEnd
0
ENDSEC
0
SECTION
2
ENTITIES
0
LWPOLYLINE
5
100
100
AcDbEntity
8
0
100
AcDbPolyline
90
4
70
1
43
0.0
10
27.5
20
0
10
27.5
20
400
42
0.99999999999999989
10
-27.5
20
400
10
-27.5
20
3.3677786976552213e-15
42
0.99999999999999989
0
CIRCLE
5
101
100
AcDbEntity
8
0
100
AcDbCircle
10
23.5
20
370
30
0
40
1.4999999999999858
210
0
220
0
230
1
0
CIRCLE
5
102
100
AcDbEntity
8
0
100
AcDbCircle
10
-23.249999999999972
20
370
30
0
40
1.5000000000000036
210
0
220
0
230
1
0
CIRCLE
5
103
100
AcDbEntity
8
0
100
AcDbCircle
10
0
20
422
30
0
40
1.5000000000000002
210
0
220
0
230
1
0
CIRCLE
5
104
100
AcDbEntity
8
0
100
AcDbCircle
10
2.2204460492503131e-15
20
400
30
0
40
17.500000000000004
210
0
220
0
230
1
0
CIRCLE
5
105
100
AcDbEntity
8
0
100
AcDbCircle
10
-19.052558883257689
20
389
30
0
40
1.4999999999999991
210
0
220
0
230
1
0
CIRCLE
5
106
100
AcDbEntity
8
0
100
AcDbCircle
10
19.052558883257614
20
389.00000000000006
30
0
40
1.4999999999999969
210
0
220
0
230
1
0
LWPOLYLINE
5
107
100
AcDbEntity
8
0
100
AcDbPolyline
90
6
70
1
43
0.0
10
15.590306383267533
20
366
42
-0.563652741008973
10
16.476254270664562
20
364.5362151998861
10
0.88594788739706187
20
334.75473249338785
42
-0.60524462839627058
10
-0.8859478873970561
20
334.75473249338785
10
-16.476254270664583
20
364.5362151998861
42
-0.56365274100905671
10
-15.590306383267539
20
366
0
CIRCLE
5
108
100
AcDbEntity
8
0
100
AcDbCircle
10
-23.249999999999972
20
328.75
30
0
40
1.5000000000000036
210
0
220
0
230
1
0
LWPOLYLINE
5
109
100
AcDbEntity
8
0
100
AcDbPolyline
90
6
70
1
43
0.0
10
15.590306383267523
20
283.5
42
-0.56365274100899776
10
16.476254270664608
20
282.0362151998861
10
0.88594788739707375
20
252.25473249338791
42
-0.60524462839629545
10
-0.88594788739706498
20
252.25473249338791
10
-16.476254270664548
20
282.0362151998861
42
-0.56365274100893803
10
-15.590306383267515
20
283.5
0
CIRCLE
5
110
100
AcDbEntity
8
0
100
AcDbCircle
10
-23.249999999999972
20
205
30
0
40
1.5000000000000036
210
0
220
0
230
1
0
CIRCLE
5
111
100
AcDbEntity
8
0
100
AcDbCircle
10
-23.249999999999972
20
287.5
30
0
40
1.5000000000000036
210
0
220
0
230
1
0
CIRCLE
5
112
100
AcDbEntity
8
0
100
AcDbCircle
10
-23.249999999999972
20
246.25
30
0
40
1.5000000000000036
210
0
220
0
230
1
0
LWPOLYLINE
5
113
100
AcDbEntity
8
0
100
AcDbPolyline
90
6
70
1
43
0.0
10
-15.590306383267539
20
118.5
10
15.590306383267515
20
118.50000000000001
42
-0.56365274100898954
10
16.476254270664601
20
117.03621519988607
10
0.88594788739707075
20
87.254732493387877
42
-0.60524462839627979
10
-0.88594788739707164
20
87.254732493387891
10
-16.476254270664594
20
117.03621519988609
42
-0.56365274100897622
0
CIRCLE
5
114
100
AcDbEntity
8
0
100
AcDbCircle
10
-23.249999999999972
20
122.5
30
0
40
1.5000000000000036
210
0
220
0
230
1
0
CIRCLE
5
115
100
AcDbEntity
8
0
100
AcDbCircle
10
-23.249999999999972
20
81.25
30
0
40
1.5000000000000036
210
0
220
0
230
1
0
LWPOLYLINE
5
116
100
AcDbEntity
8
0
100
AcDbPolyline
90
6
70
1
43
0.0
10
-2.5002557964495029
20
329.21378480011384
42
-0.24591602091087345
10
-2.500255796449502
20
328.28621519988616
10
-17.614052112602959
20
299.41498890364431
42
-0.7838774969074348
10
-19.499999999999996
20
299.87877370375821
10
-19.499999999999964
20
357.62122629624179
42
-0.7838774969075506
10
-17.614052112602913
20
358.0850110963558
0
LWPOLYLINE
5
117
100
AcDbEntity
8
0
100
AcDbPolyline
90
6
70
1
43
0.0
10
0.88594788739705166
20
75.245267506612166
10
16.476254270664604
20
45.46378480011392
42
-0.56365274100898721
10
15.590306383267531
20
43.999999999999986
10
-15.590306383267546
20
44.000000000000014
42
-0.56365274100898621
10
-16.476254270664597
20
45.463784800113906
10
-0.88594788739705221
20
75.245267506612151
42
-0.6052446283962708
0
LWPOLYLINE
5
118
100
AcDbEntity
8
0
100
AcDbPolyline
90
6
70
1
43
0.0
10
19.499999999999954
20
299.87877370375821
42
-0.78387749690744779
10
17.614052112602931
20
299.41498890364426
10
2.5002557964494971
20
328.28621519988616
42
-0.24591602091086978
10
2.5002557964494976
20
329.21378480011384
10
17.614052112602973
20
358.0850110963558
42
-0.78387749690740438
10
19.499999999999996
20
357.62122629624184
0
LWPOLYLINE
5
119
100
AcDbEntity
8
0
100
AcDbPolyline
90
6
70
1
43
0.0
10
17.614052112602913
20
216.91498890364429
10
2.5002557964494758
20
245.78621519988602
42
-0.24591602091090076
10
2.5002557964495131
20
246.7137848001139
10
17.614052112602931
20
275.58501109635574
42
-0.78387749690746744
10
19.500000000000007
20
275.12122629624184
10
19.50000000000006
20
217.37877370375824
42
-0.78387749690743147
0
LWPOLYLINE
5
120
100
AcDbEntity
8
0
100
AcDbPolyline
90
6
70
1
43
0.0
10
16.476254270664533
20
292.96378480011379
42
-0.56365274100897533
10
15.590306383267515
20
291.5
10
-15.590306383267533
20
291.5
42
-0.5636527410090052
10
-16.476254270664583
20
292.96378480011384
10
-0.88594788739713026
20
322.74526750661209
42
-0.60524462839630211
10
0.8859478873970672
20
322.74526750661215
0
CIRCLE
5
121
100
AcDbEntity
8
0
100
AcDbCircle
10
23.5
20
246.25
30
0
40
1.4999999999999858
210
0
220
0
230
1
0
LWPOLYLINE
5
122
100
AcDbEntity
8
0
100
AcDbPolyline
90
6
70
1
43
0.0
10
-2.5002557964495042
20
80.786215199886087
10
-17.614052112602941
20
51.914988903644286
42
-0.78387749690747233
10
-19.499999999999996
20
52.378773703758199
10
-19.5
20
110.1212262962418
42
-0.78387749690747377
10
-17.614052112602931
20
110.58501109635573
10
-2.5002557964495038
20
81.713784800113913
42
-0.24591602091084472
0
LWPOLYLINE
5
123
100
AcDbEntity
8
0
100
AcDbPolyline
90
4
70
1
43
0.0
10
-15
20
203.5
42
-0.99999999999999989
10
-14.999999999999947
20
206.50000000000006
10
15
20
206.50000000000003
42
-0.99999999999999989
10
15.000000000000018
20
203.50000000000006
0
LWPOLYLINE
5
124
100
AcDbEntity
8
0
100
AcDbPolyline
90
6
70
1
43
0.0
10
17.614052112602948
20
51.914988903644222
10
2.5002557964494914
20
80.786215199886087
42
-0.24591602091085177
10
2.5002557964494909
20
81.713784800113913
10
17.614052112602948
20
110.58501109635574
42
-0.78387749690747233
10
19.5
20
110.12122629624186
10
19.5
20
52.378773703758135
42
-0.78387749690746511
0
LWPOLYLINE
5
125
100
AcDbEntity
8
0
100
AcDbPolyline
90
6
70
1
43
0.0
10
16.476254270664587
20
199.53621519988613
10
0.88594788739708386
20
169.75473249338791
42
-0.60524462839623139
10
-0.88594788739706054
20
169.75473249338785
10
-16.476254270664594
20
199.53621519988613
42
-0.56365274100899043
10
-15.590306383267524
20
200.99999999999997
10
15.590306383267517
20
201
42
-0.56365274100900753
0
CIRCLE
5
126
100
AcDbEntity
8
0
100
AcDbCircle
10
23.5
20
81.25
30
0
40
1.4999999999999858
210
0
220
0
230
1
0
CIRCLE
5
127
100
AcDbEntity
8
0
100
AcDbCircle
10
23.5
20
328.75
30
0
40
1.4999999999999858
210
0
220
0
230
1
0
LWPOLYLINE
5
128
100
AcDbEntity
8
0
100
AcDbPolyline
90
6
70
1
43
0.0
10
-16.476254270664562
20
127.96378480011391
10
-0.88594788739706143
20
157.74526750661215
42
-0.6052446283962748
10
0.88594788739707608
20
157.74526750661212
10
16.476254270664587
20
127.96378480011393
42
-0.56365274100898799
10
15.590306383267524
20
126.5
10
-15.590306383267521
20
126.5
42
-0.56365274100898777
0
LWPOLYLINE
5
129
100
AcDbEntity
8
0
100
AcDbPolyline
90
6
70
1
43
0.0
10
-19.500000000000028
20
275.12122629624179
42
-0.78387749690742414
10
-17.614052112602955
20
275.58501109635569
10
-2.5002557964495074
20
246.7137848001139
42
-0.2459160209108858
10
-2.5002557964495264
20
245.78621519988613
10
-17.614052112602913
20
216.91498890364429
42
-0.78387749690748065
10
-19.499999999999982
20
217.37877370375816
0
LWPOLYLINE
5
130
100
AcDbEntity
8
0
100
AcDbPolyline
90
6
70
1
43
0.0
10
-0.88594788739707431
20
240.24526750661209
42
-0.60524462839629545
10
0.88594788739706498
20
240.24526750661209
10
16.476254270664558
20
210.4637848001139
42
-0.56365274100898133
10
15.590306383267515
20
209
10
-15.59030638326753
20
209.00000000000006
42
-0.56365274100896523
10
-16.476254270664576
20
210.4637848001139
0
CIRCLE
5
131
100
AcDbEntity
8
0
100
AcDbCircle
10
23.5
20
122.5
30
0
40
1.4999999999999858
210
0
220
0
230
1
0
CIRCLE
5
132
100
AcDbEntity
8
0
100
AcDbCircle
10
23.5
20
205
30
0
40
1.4999999999999858
210
0
220
0
230
1
0
LWPOLYLINE
5
133
100
AcDbEntity
8
0
100
AcDbPolyline
90
6
70
1
43
0.0
10
2.5002557964495176
20
164.2137848001139
10
17.614052112602952
20
193.08501109635571
42
-0.78387749690748054
10
19.500000000000011
20
192.62122629624176
10
19.500000000000011
20
134.87877370375816
42
-0.78387749690748865
10
17.614052112602934
20
134.41498890364426
10
2.5002557964495309
20
163.28621519988604
42
-0.24591602091084094
0
LWPOLYLINE
5
134
100
AcDbEntity
8
0
100
AcDbPolyline
90
6
70
1
43
0.0
10
-2.500255796449502
20
163.2862151998861
10
-17.614052112602955
20
134.41498890364429
42
-0.78387749690745923
10
-19.500000000000007
20
134.87877370375821
10
-19.499999999999982
20
192.62122629624184
42
-0.78387749690747888
10
-17.614052112602934
20
193.08501109635571
10
-2.500255796449506
20
164.2137848001139
42
-0.24591602091087661
0
CIRCLE
5
135
100
AcDbEntity
8
0
100
AcDbCircle
10
23.5
20
287.5
30
0
40
1.4999999999999858
210
0
220
0
230
1
0
CIRCLE
5
136
100
AcDbEntity
8
0
100
AcDbCircle
10
-23.249999999999972
20
163.75
30
0
40
1.5000000000000036
210
0
220
0
230
1
0
CIRCLE
5
137
100
AcDbEntity
8
0
100
AcDbCircle
10
23.5
20
163.75
30
0
40
1.4999999999999858
210
0
220
0
230
1
0
CIRCLE
5
138
100
AcDbEntity
8
0
100
AcDbCircle
10
23.5
20
40
30
0
40
1.4999999999999858
210
0
220
0
230
1
0
LWPOLYLINE
5
139
100
AcDbEntity
8
0
100
AcDbPolyline
90
4
70
1
43
0.0
10
14.999999999999957
20
38.500000000000014
10
-15.00000000000005
20
38.500000000000433
42
-0.99999999999999989
10
-14.999999999999993
20
41.499999999999993
10
15.000000000000007
20
41.499999999999559
42
-0.99999999999999989
0
CIRCLE
5
140
100
AcDbEntity
8
0
100
AcDbCircle
10
-23.249999999999972
20
40
30
0
40
1.5000000000000036
210
0
220
0
230
1
0
LWPOLYLINE
5
141
100
AcDbEntity
8
0
100
AcDbPolyline
90
4
70
1
43
0.0
10
-15.000000000000149
20
371.49999999999972
10
14.999999999999895
20
371.5
42
-0.99999999999999989
10
14.999999999999901
20
368.50000000000057
10
-14.999999999999993
20
368.5
42
-0.99999999999999989
0
CIRCLE
5
142
100
AcDbEntity
8
0
100
AcDbCircle
10
0
20
-22.000000000000028
30
0
40
1.5000000000000002
210
0
220
0
230
1
0
CIRCLE
5
143
100
AcDbEntity
8
0
100
AcDbCircle
10
19.052558883257614
20
10.999999999999943
30
0
40
1.4999999999999969
210
0
220
0
230
1
0
CIRCLE
5
144
100
AcDbEntity
8
0
100
AcDbCircle
10
-19.052558883257689
20
11.000000000000083
30
0
40
1.4999999999999991
210
0
220
0
230
1
0
CIRCLE
5
145
100
AcDbEntity
8
0
100
AcDbCircle
10
0
20
0
30
0
40
17.500000000000004
210
0
220
0
230
1
0
ENDSEC
0
SECTION
2
OBJECTS
0
DICTIONARY
5
C
100
AcDbDictionary
3
ACAD_GROUP
350
D
3
ACAD_MLINESTYLE
350
17
0
DICTIONARY
5
D
100
AcDbDictionary
0
DICTIONARY
5
1A
330
C
100
AcDbDictionary
0
DICTIONARY
5
17
100
AcDbDictionary
0
ENDSEC
0
EOF
