0
SECTION
2
HEADER
9
$INSUNITS
70
4
9
$ACADVER
1
AC1014
9
$HANDSEED
5
FFFF
0
ENDSEC
0
SECTION
2
TABLES
0
TABLE
2
VPORT
5
8
100
AcDbSymbolTable
0
ENDTAB
0
TABLE
2
LTYPE
5
5
100
AcDbSymbolTable
0
LTYPE
5
14
100
AcDbSymbolTableRecord
100
AcDbLinetypeTableRecord
2
BYBLOCK
70
0
0
LTYPE
5
15
100
AcDbSymbolTableRecord
100
AcDbLinetypeTableRecord
2
BYLAYER
70
0
0
ENDTAB
0
TABLE
2
LAYER
5
2
100
AcDbSymbolTable
70
2
0
LAYER
5
50
100
AcDbSymbolTableRecord
100
AcDbLayerTableRecord
2
0
70
0
6
CONTINUOUS
0
ENDTAB
0
TABLE
2
STYLE
5
3
100
AcDbSymbolTable
70
1
0
STYLE
5
11
100
AcDbSymbolTableRecord
100
AcDbTextStyleTableRecord
2
STANDARD
70
0
0
ENDTAB
0
TABLE
2
VIEW
5
6
100
AcDbSymbolTable
70
0
0
ENDTAB
0
TABLE
2
UCS
5
7
100
AcDbSymbolTable
70
0
0
ENDTAB
0
TABLE
2
APPID
5
9
100
AcDbSymbolTable
70
2
0
APPID
5
12
100
AcDbSymbolTableRecord
100
AcDbRegAppTableRecord
2
ACAD
70
0
0
ENDTAB
0
TABLE
2
DIMSTYLE
5
A
100
AcDbSymbolTable
70
1
0
ENDTAB
0
TABLE
2
BLOCK_RECORD
5
1
100
AcDbSymbolTable
70
1
0
BLOCK_RECORD
5
1F
100
AcDbSymbolTableRecord
100
AcDbBlockTableRecord
2
*MODEL_SPACE
0
BLOCK_RECORD
5
1B
100
AcDbSymbolTableRecord
100
AcDbBlockTableRecord
2
*PAPER_SPACE
0
ENDTAB
0
ENDSEC
0
SECTION
2
BLOCKS
0
BLOCK
5
20
100
AcDbEntity
100
AcDbBlockBegin
2
*MODEL_SPACE
0
ENDBLK
5
21
100
AcDbEntity
100
AcDbBlockEnd
0
BLOCK
5
1C
100
AcDbEntity
100
AcDbBlockBegin
2
*PAPER_SPACE
0
ENDBLK
5
1D
100
AcDbEntity
100
AcDbBlockEnd
0
ENDSEC
0
SECTION
2
ENTITIES
0
LWPOLYLINE
5
100
100
AcDbEntity
8
0
100
AcDbPolyline
90
160
70
1
43
0.0
10
-5.0002366756688339
20
93.431014066994237
42
0.012230045522009356
10
-5.6548462208046599
20
93.327334108447417
42
-0.27686129360468792
10
-6.0401067636563441
20
93.471755076026739
10
-6.9824562607361242
20
94.656450759655655
42
0.30595467476648902
10
-7.6229016600244996
20
94.858094003619414
42
0.012680982542147182
10
-8.3705219641519406
20
94.615177441505054
42
0.30595467476651028
10
-8.7701302511191077
20
94.075600269736952
10
-8.8361603576057153
20
92.563262191629747
42
-0.27686107917341529
10
-9.0629538817851873
20
92.219972846818763
42
0.012230045522009356
10
-9.6534856861485494
20
91.919081872506496
42
-0.2768612936046449
10
-10.06451876922506
20
91.93738231980916
10
-11.32683749845426
20
92.772892860312822
42
0.30595456612628408
10
-11.998248261588259
20
92.766758604305011
42
0.012680986388226036
10
-12.634212274010924
20
92.304703710472054
42
0.30595467476652605
10
-12.847523823443463
20
91.668049573451938
10
-12.442984019113766
20
90.209326164382148
42
-0.27686107917342306
10
-12.552595236603739
20
89.81275554283927
42
0.012230045610839145
10
-13.021243936026153
20
89.344106854271928
42
-0.27686129036536433
10
-13.417814774000556
20
89.234495409495338
10
-14.876538183070346
20
89.639035213825039
42
0.305954566126312
10
-15.513192175105441
20
89.425723853661509
42
0.012680986388226036
10
-15.975247078720693
20
88.789759848346179
42
0.3059546747665231
10
-15.98138146993125
20
88.118348888835826
10
-15.145870929427536
20
86.856030159606661
42
-0.27686107917341424
10
-15.127570330553864
20
86.444997356838584
42
0.012230045610838578
10
-15.428461320833975
20
85.854465555210169
42
-0.27686129036536866
10
-15.771750801248146
20
85.627671747987307
10
-17.284088879355341
20
85.561641641500685
42
0.30595467476651217
10
-17.823666051123553
20
85.162033354533548
42
0.012680982542146635
10
-18.066582613238012
20
84.414413050406139
42
0.30595467476649491
10
-17.86493936927404
20
83.773967651117673
10
-16.680243685645042
20
82.831618154038068
42
-0.27686107917342201
10
-16.53582266053315
20
82.446357924613409
42
0.012230048185461358
10
-16.639502653561109
20
81.791748238845912
42
-0.27686119647886492
10
-16.895907191784328
20
81.469972365491515
10
-18.313821750764635
20
80.939835835070326
42
0.30595467476649729
10
-18.703504384252888
20
80.393047253931542
42
0.012680981953337953
10
-18.703504385178423
20
79.606952782556618
42
0.30595469139856696
10
-18.313821750764635
20
79.060164164929333
10
-16.895907191784353
20
78.530027634508087
42
-0.2768612396070485
10
-16.639502645086171
20
78.208251697624277
42
0.012230040947704648
10
-16.535822719775826
20
77.55364239812944
42
-0.27686129997823816
10
-16.680243685645117
20
77.168381845961733
10
-17.864939369274012
20
76.226032348881972
42
0.30595467476650107
10
-18.06658261323787
20
75.585586949593534
42
0.012680982542146087
10
-17.823666051123421
20
74.837966645466153
42
0.30595467476650257
10
-17.284088879355323
20
74.438358358498974
10
-15.771750801248157
20
74.372328252011627
42
-0.27686107917343061
10
-15.428461456437834
20
74.145534727832569
42
0.012230045522009923
10
-15.127570482124874
20
73.555002923469516
42
-0.27686129360462974
10
-15.145870929427543
20
73.143969840393027
10
-15.981381469931218
20
71.881651111163848
42
0.30595467476651933
10
-15.975247078720656
20
71.210240151653508
42
0.012680982542147182
10
-15.513192320090424
20
70.57427633560718
42
0.30595467476651578
10
-14.876538183070318
20
70.360964786174634
10
-13.417814774000512
20
70.765504590504335
42
-0.27686107917343716
10
-13.021244152457642
20
70.655893373014351
42
0.012230045347229736
10
-12.552595474235662
20
70.187244683443254
42
-0.27686129997823677
10
-12.442984019113712
20
69.79067383561754
10
-12.847523823443414
20
68.331950426547735
42
0.30595467476652166
10
-12.634212274010871
20
67.695296289527647
42
0.012680982542146087
10
-11.998248457964555
20
67.233241530897388
42
0.3059546747665296
10
-11.326837498454189
20
67.227107139686836
10
-10.064518769225037
20
68.062617680190542
42
-0.2768610791734355
10
-9.6534859664569748
20
68.080918279064235
42
0.012230045347229169
10
-9.0629541777117986
20
67.780027294956469
42
-0.2768612999782592
10
-8.8361603576056549
20
67.436737808369941
10
-8.7701302511190438
20
65.924399730262749
42
0.30595467476649402
10
-8.3705219641517221
20
65.384822558495159
42
0.012680982542146635
10
-7.6229016600245068
20
65.141905996380075
42
0.30595467476649069
10
-6.9824562607360461
20
65.343549240344046
10
-6.0401067636570431
20
66.52824492397356
42
-0.27686107917340647
10
-5.6548465342316687
20
66.672665949085726
42
0.012230045347229736
10
-5.0002370009228141
20
66.568985976395425
42
-0.27686129997824666
10
-4.6784609751099229
20
66.312581417833755
10
-4.1483244446886962
20
64.894666858853455
42
0.30595467476649202
10
-3.6015358635499526
20
64.504984225364467
42
0.012680982542147182
10
-2.815441355686481
20
64.504984225365234
42
0.30595467476649946
10
-2.2686527745476965
20
64.894666858853455
10
-1.7385162441268065
20
66.312581417833883
42
-0.27686107917345149
10
-1.4167405435676623
20
66.568985933005678
42
0.01223004534723144
10
-0.76213100774780951
20
66.672665889842264
42
-0.27686129997827047
10
-0.37687045558011534
20
66.528244923972977
10
0.56547904149965778
20
65.343549240344075
42
0.30595467476649169
10
1.2059244407883933
20
65.141905996379123
42
0.012680982542147182
10
1.9535447449154744
20
65.384822558494676
42
0.30595467476650612
10
2.3531530318826417
20
65.924399730262763
10
2.419183138368219
20
67.436737808370012
42
-0.27686107917342329
10
2.6459766625482892
20
67.780027153181848
42
0.012230045189216122
10
3.2365084510480759
20
68.080918118915079
42
-0.27686130574035411
10
3.6475415499886021
20
68.062617680190542
10
4.9098602792177823
20
67.227107139686879
42
0.30595467476651911
10
5.5812712387281147
20
67.23324153089743
42
0.01268098254214773
10
6.2172350547744468
20
67.695296289527661
42
0.30595467476651839
10
6.4305466042069863
20
68.331950426547778
10
6.0260067998772913
20
69.790673835617582
42
-0.27686107917343811
10
6.1356180173672668
20
70.187244457160446
42
0.012230045347230873
10
6.6042667069383825
20
70.655893135382428
42
-0.27686129997824355
10
7.0008375547640833
20
70.765504590504392
10
8.4595609638338853
20
70.360964786174691
42
0.30595467476651478
10
9.0962151008539855
20
70.574276335607223
42
0.012680982542147182
10
9.5582698594842341
20
71.210240151653537
42
0.30595467476652899
10
9.5644042506947837
20
71.881651111163904
10
8.7288937101910751
20
73.143969840393055
42
-0.27686123960705761
10
8.7105932247201459
20
73.555002852882964
42
0.012230040947704081
10
9.0114840954252475
20
74.145534431906256
42
-0.27686129997818693
10
9.3547735820116742
20
74.372328252012437
10
10.867111660118873
20
74.438358358499045
42
0.30595467476650418
10
11.406688831887084
20
74.837966645466167
42
0.012680982542148276
10
11.649605394001552
20
75.585586949593576
42
0.30595467476648897
10
11.447962150037574
20
76.226032348882043
10
10.263266466408599
20
77.168381845961719
42
-0.27686123960710218
10
10.118845484341518
20
77.553642309886953
42
0.012230041122486032
10
10.222525415238565
20
78.208251618083779
42
-0.27686129360474149
10
10.478929972547855
20
78.530027634508201
10
11.896844531528163
20
79.060164164929404
42
0.30595467476649402
10
12.286527165017025
20
79.606952746068146
42
0.012680982542148824
10
12.286527165016388
20
80.393047253931627
42
0.30595467476649457
10
11.896844531528162
20
80.939835835070397
10
10.478929972547864
20
81.469972365491572
42
-0.27686123960707626
10
10.222525425849657
20
81.791748302375453
42
0.012230040947705785
10
10.118845500539358
20
82.446357601870247
42
-0.27686129997827275
10
10.263266466408648
20
82.831618154037983
10
11.447962150037572
20
83.773967651117715
42
0.3059547834067548
10
11.649605326099742
20
84.414413278951073
42
0.012680978696067711
10
11.406688831886953
20
85.162033354533563
42
0.30595467476650162
10
10.867111660118859
20
85.561641641500742
10
9.3547735820116564
20
85.627671747987307
42
-0.27686107917339198
10
9.011484237200678
20
85.854465272166806
42
0.01223004534723144
10
8.7105932673935715
20
86.44499706819856
42
-0.27686129997819658
10
8.7288937101910751
20
86.856030159606689
10
9.5644042506947482
20
88.118348888835868
42
0.3059546747664994
10
9.5582698594842181
20
88.789759848346165
42
0.012680982542148824
10
9.0962151008539642
20
89.425723664392535
42
0.30595467476652294
10
8.459560963833848
20
89.639035213825082
10
7.0008375547640451
20
89.234495409495366
42
-0.27686107917344699
10
6.6042669332211847
20
89.344106626985365
42
0.012230045347230873
10
6.1356182549992058
20
89.812755316556462
42
-0.27686129997820796
10
6.0260067998772469
20
90.209326164382176
10
6.4305466042069579
20
91.668049573451981
42
0.30595456612631333
10
6.217235244043426
20
92.304703565487074
42
0.012680986388227131
10
5.5812712387280872
20
92.766758469102342
42
0.30595467476652599
10
4.9098602792177246
20
92.772892860312879
10
3.6475415499884885
20
91.937382319809316
42
-0.27686107917344804
10
3.2365087472205643
20
91.919081720935623
42
0.012230045522010491
10
2.6459769499334094
20
92.219972709135703
42
-0.27686129360460593
10
2.4191831383691946
20
92.563262191629747
10
2.3531530318825871
20
94.075600269736981
42
0.30595456612628374
10
1.9535449697237928
20
94.615177362103452
42
0.012680986388227679
10
1.205924440788043
20
94.858094003619655
42
0.30595467476649307
10
0.56547904149958095
20
94.656450759655669
10
-0.37687045558071586
20
93.471755076027193
42
-0.27686123960708808
10
-0.76213091950518863
20
93.327334093960403
42
0.012230041122485465
10
-1.4167402277021479
20
93.431014024856665
42
-0.27686129360475537
10
-1.7385162441265753
20
93.687418582165961
10
-2.2686527745477596
20
95.105333141146261
42
0.30595467476649818
10
-2.8154413556865361
20
95.49501577463451
42
0.012680982542146635
10
-3.6015358635499939
20
95.495015774634467
42
0.30595467476649119
10
-4.1483244446887566
20
95.105333141146247
10
-4.6784609751098252
20
93.68741858216589
42
-0.27686107917343156
0
CIRCLE
5
101
100
AcDbEntity
8
0
100
AcDbCircle
10
-3.2084886096173726
20
79.999999999999858
30
0
40
17.75
210
0
220
-0
230
1
0
ENDSEC
0
SECTION
2
OBJECTS
0
DICTIONARY
5
C
100
AcDbDictionary
3
ACAD_GROUP
350
D
3
ACAD_MLINESTYLE
350
17
0
DICTIONARY
5
D
100
AcDbDictionary
0
DICTIONARY
5
1A
330
C
100
AcDbDictionary
0
DICTIONARY
5
17
100
AcDbDictionary
0
ENDSEC
0
EOF
